<mxfile host="www.draw.io" modified="2020-03-02T12:17:52.275Z" agent="Mozilla/5.0 (X11; Linux x86_64; rv:73.0) Gecko/20100101 Firefox/73.0" etag="An0oOUuDkLWthdpNpJs8" version="12.7.9" type="github">
  <diagram id="jEj-tkbqoD7G0oJEJ6qr" name="Seite-1">
    <mxGraphModel dx="1408" dy="797" grid="1" gridSize="10" guides="1" tooltips="1" connect="1" arrows="1" fold="1" page="1" pageScale="1" pageWidth="827" pageHeight="1169" math="0" shadow="0">
      <root>
        <mxCell id="0" />
        <mxCell id="1" parent="0" />
        <mxCell id="Wlml97Y0BPVGPOPLVci4-12" style="edgeStyle=orthogonalEdgeStyle;rounded=0;orthogonalLoop=1;jettySize=auto;html=1;entryX=0.5;entryY=0;entryDx=0;entryDy=0;" parent="1" source="Wlml97Y0BPVGPOPLVci4-2" target="Wlml97Y0BPVGPOPLVci4-3" edge="1">
          <mxGeometry relative="1" as="geometry" />
        </mxCell>
        <mxCell id="Wlml97Y0BPVGPOPLVci4-2" value="move_outlet_steps" style="text;html=1;strokeColor=#b85450;fillColor=#f8cecc;align=center;verticalAlign=middle;whiteSpace=wrap;rounded=0;gradientColor=#ea6b66;" parent="1" vertex="1">
          <mxGeometry x="125" y="100" width="130" height="20" as="geometry" />
        </mxCell>
        <mxCell id="Wlml97Y0BPVGPOPLVci4-8" value="" style="edgeStyle=orthogonalEdgeStyle;rounded=0;orthogonalLoop=1;jettySize=auto;html=1;" parent="1" source="Wlml97Y0BPVGPOPLVci4-3" target="Wlml97Y0BPVGPOPLVci4-4" edge="1">
          <mxGeometry relative="1" as="geometry" />
        </mxCell>
        <mxCell id="Wlml97Y0BPVGPOPLVci4-3" value="move_outlet_steps_loop" style="text;html=1;strokeColor=#b85450;fillColor=#f8cecc;align=center;verticalAlign=middle;whiteSpace=wrap;rounded=0;gradientColor=#ea6b66;" parent="1" vertex="1">
          <mxGeometry x="110" y="150" width="160" height="20" as="geometry" />
        </mxCell>
        <mxCell id="Wlml97Y0BPVGPOPLVci4-22" value="no" style="edgeStyle=orthogonalEdgeStyle;rounded=0;orthogonalLoop=1;jettySize=auto;html=1;entryX=0;entryY=0.5;entryDx=0;entryDy=0;" parent="1" source="Wlml97Y0BPVGPOPLVci4-4" target="Wlml97Y0BPVGPOPLVci4-5" edge="1">
          <mxGeometry relative="1" as="geometry" />
        </mxCell>
        <mxCell id="Wlml97Y0BPVGPOPLVci4-23" value="yes" style="edgeStyle=orthogonalEdgeStyle;rounded=0;orthogonalLoop=1;jettySize=auto;html=1;exitX=0.5;exitY=1;exitDx=0;exitDy=0;entryX=0.5;entryY=0;entryDx=0;entryDy=0;" parent="1" source="Wlml97Y0BPVGPOPLVci4-4" target="Wlml97Y0BPVGPOPLVci4-16" edge="1">
          <mxGeometry relative="1" as="geometry" />
        </mxCell>
        <mxCell id="Wlml97Y0BPVGPOPLVci4-4" value="Steps left?" style="rhombus;whiteSpace=wrap;html=1;gradientColor=#ffd966;fillColor=#fff2cc;strokeColor=#d6b656;" parent="1" vertex="1">
          <mxGeometry x="125" y="190" width="130" height="120" as="geometry" />
        </mxCell>
        <mxCell id="Wlml97Y0BPVGPOPLVci4-29" style="edgeStyle=orthogonalEdgeStyle;rounded=0;orthogonalLoop=1;jettySize=auto;html=1;exitX=0.5;exitY=1;exitDx=0;exitDy=0;entryX=0.5;entryY=0;entryDx=0;entryDy=0;" parent="1" source="Wlml97Y0BPVGPOPLVci4-5" target="Wlml97Y0BPVGPOPLVci4-28" edge="1">
          <mxGeometry relative="1" as="geometry" />
        </mxCell>
        <mxCell id="Wlml97Y0BPVGPOPLVci4-5" value="move_outlet_steps_exit" style="text;html=1;strokeColor=#b85450;fillColor=#f8cecc;align=center;verticalAlign=middle;whiteSpace=wrap;rounded=0;gradientColor=#ea6b66;" parent="1" vertex="1">
          <mxGeometry x="300" y="240" width="140" height="20" as="geometry" />
        </mxCell>
        <mxCell id="Wlml97Y0BPVGPOPLVci4-24" value="" style="edgeStyle=orthogonalEdgeStyle;rounded=0;orthogonalLoop=1;jettySize=auto;html=1;" parent="1" source="Wlml97Y0BPVGPOPLVci4-16" target="Wlml97Y0BPVGPOPLVci4-18" edge="1">
          <mxGeometry relative="1" as="geometry" />
        </mxCell>
        <mxCell id="Wlml97Y0BPVGPOPLVci4-16" value="Rising edge" style="rounded=1;whiteSpace=wrap;html=1;gradientColor=#7ea6e0;fillColor=#dae8fc;strokeColor=#6c8ebf;" parent="1" vertex="1">
          <mxGeometry x="130" y="340" width="120" height="60" as="geometry" />
        </mxCell>
        <mxCell id="Wlml97Y0BPVGPOPLVci4-25" value="" style="edgeStyle=orthogonalEdgeStyle;rounded=0;orthogonalLoop=1;jettySize=auto;html=1;" parent="1" source="Wlml97Y0BPVGPOPLVci4-18" target="Wlml97Y0BPVGPOPLVci4-19" edge="1">
          <mxGeometry relative="1" as="geometry" />
        </mxCell>
        <mxCell id="Wlml97Y0BPVGPOPLVci4-18" value="branch(bl) to&lt;br&gt;step_delay" style="rounded=1;whiteSpace=wrap;html=1;gradientColor=#7ea6e0;fillColor=#dae8fc;strokeColor=#6c8ebf;" parent="1" vertex="1">
          <mxGeometry x="130" y="440" width="120" height="60" as="geometry" />
        </mxCell>
        <mxCell id="Wlml97Y0BPVGPOPLVci4-26" value="" style="edgeStyle=orthogonalEdgeStyle;rounded=0;orthogonalLoop=1;jettySize=auto;html=1;" parent="1" source="Wlml97Y0BPVGPOPLVci4-19" target="Wlml97Y0BPVGPOPLVci4-20" edge="1">
          <mxGeometry relative="1" as="geometry" />
        </mxCell>
        <mxCell id="Wlml97Y0BPVGPOPLVci4-19" value="Falling edge" style="rounded=1;whiteSpace=wrap;html=1;gradientColor=#7ea6e0;fillColor=#dae8fc;strokeColor=#6c8ebf;" parent="1" vertex="1">
          <mxGeometry x="130" y="540" width="120" height="60" as="geometry" />
        </mxCell>
        <mxCell id="Wlml97Y0BPVGPOPLVci4-27" style="edgeStyle=orthogonalEdgeStyle;rounded=0;orthogonalLoop=1;jettySize=auto;html=1;entryX=0;entryY=0.75;entryDx=0;entryDy=0;" parent="1" source="Wlml97Y0BPVGPOPLVci4-20" target="Wlml97Y0BPVGPOPLVci4-3" edge="1">
          <mxGeometry relative="1" as="geometry">
            <Array as="points">
              <mxPoint x="90" y="660" />
              <mxPoint x="90" y="165" />
            </Array>
          </mxGeometry>
        </mxCell>
        <mxCell id="Wlml97Y0BPVGPOPLVci4-20" value="branch(bl) to&lt;br&gt;step_delay" style="rounded=1;whiteSpace=wrap;html=1;gradientColor=#7ea6e0;fillColor=#dae8fc;strokeColor=#6c8ebf;" parent="1" vertex="1">
          <mxGeometry x="130" y="630" width="120" height="60" as="geometry" />
        </mxCell>
        <mxCell id="Wlml97Y0BPVGPOPLVci4-28" value="Update outlet position" style="rounded=1;whiteSpace=wrap;html=1;gradientColor=#7ea6e0;fillColor=#dae8fc;strokeColor=#6c8ebf;" parent="1" vertex="1">
          <mxGeometry x="310" y="300" width="120" height="60" as="geometry" />
        </mxCell>
      </root>
    </mxGraphModel>
  </diagram>
</mxfile>
